<svg width="32" height="32" viewBox="0 0 32 32" fill="none" xmlns="http://www.w3.org/2000/svg">
<path d="M4.15392 14.0583C1.75033 9.89479 3.17696 4.57109 7.34011 2.16751C11.5036 -0.236078 16.8273 1.19023 19.2309 5.3537" stroke="black" stroke-width="2" stroke-miterlimit="10" stroke-linecap="round" stroke-linejoin="round"/>
<path d="M19.2309 5.3537L18.5937 7.73185L6.53208 14.6954L4.15393 14.0583" stroke="black" stroke-width="2" stroke-miterlimit="10" stroke-linecap="round" stroke-linejoin="round"/>
<path d="M11.4344 9.12815C12.6819 8.40787 13.1093 6.81265 12.389 5.56512C11.6687 4.31759 10.0735 3.89018 8.82599 4.61046C7.57846 5.33074 7.15104 6.92596 7.87132 8.17349C8.5916 9.42102 10.1868 9.84843 11.4344 9.12815Z" stroke="black" stroke-width="2" stroke-miterlimit="10" stroke-linecap="round"/>
<path d="M15.8365 6.17295C15.9925 6.0829 16.0459 5.88347 15.9559 5.72751C15.8658 5.57155 15.6664 5.51812 15.5104 5.60817C15.3545 5.69821 15.301 5.89764 15.3911 6.0536C15.4811 6.20956 15.6805 6.263 15.8365 6.17295Z" stroke="black" stroke-width="2" stroke-miterlimit="10" stroke-linecap="round" stroke-linejoin="round"/>
<path d="M20.2391 17.3041C20.4192 17.3041 20.5652 17.1581 20.5652 16.978C20.5652 16.7979 20.4192 16.6519 20.2391 16.6519C20.059 16.6519 19.9131 16.7979 19.9131 16.978C19.9131 17.1581 20.059 17.3041 20.2391 17.3041Z" stroke="black" stroke-width="2" stroke-miterlimit="10" stroke-linecap="round" stroke-linejoin="round"/>
<path d="M11.4348 24.8041C11.6149 24.8041 11.7609 24.6581 11.7609 24.478C11.7609 24.2979 11.6149 24.1519 11.4348 24.1519C11.2547 24.1519 11.1087 24.2979 11.1087 24.478C11.1087 24.6581 11.2547 24.8041 11.4348 24.8041Z" stroke="black" stroke-width="2" stroke-miterlimit="10" stroke-linecap="round" stroke-linejoin="round"/>
<path d="M17.8499 8.1864C23.8998 8.47108 28.7174 13.4664 28.7174 19.5867C28.7174 25.89 23.6076 30.9998 17.3043 30.9998C11.0011 30.9998 5.8913 25.89 5.8913 19.5867C5.8913 17.8731 6.24771 15.9274 6.92467 14.4688" stroke="black" stroke-width="2" stroke-miterlimit="10" stroke-linecap="round" stroke-linejoin="round"/>
<path d="M28.6437 18.2876C24.5438 16.0053 21.2043 12.522 19.1004 8.31387" stroke="black" stroke-width="2" stroke-miterlimit="10" stroke-linecap="round" stroke-linejoin="round"/>
<path d="M16.6147 30.9795C15.6948 30.5022 14.9875 29.7818 14.6259 28.8548C13.6297 26.3028 15.6273 23.1502 19.0874 21.8136C22.5478 20.4769 26.1606 21.462 27.1567 24.014C27.2745 24.3153 27.3501 24.6248 27.387 24.9388" stroke="black" stroke-width="2" stroke-miterlimit="10" stroke-linecap="round" stroke-linejoin="round"/>
<path d="M5.97803 20.9837C6.85618 21.3443 7.81781 21.5433 8.82607 21.5433C12.968 21.5433 16.3261 18.1852 16.3261 14.0433C16.3261 12.4686 15.8405 11.0071 15.0113 9.80054" stroke="black" stroke-width="2" stroke-miterlimit="10" stroke-linecap="round" stroke-linejoin="round"/>
<path d="M13.6633 19.7749L16.6848 23.2047" stroke="black" stroke-width="2" stroke-miterlimit="10" stroke-linecap="round" stroke-linejoin="round"/>
<path d="M26.3454 16.8261L25.1709 21.8912" stroke="black" stroke-width="2" stroke-miterlimit="10" stroke-linecap="round" stroke-linejoin="round"/>
<path d="M15.8056 11.2924L20.2932 10.4185" stroke="black" stroke-width="2" stroke-miterlimit="10" stroke-linecap="round" stroke-linejoin="round"/>
<path d="M2.63043 30.9998H1" stroke="black" stroke-width="2" stroke-miterlimit="10" stroke-linecap="round" stroke-linejoin="round"/>
<path d="M26.1087 30.9998H5.23914" stroke="black" stroke-width="2" stroke-miterlimit="10" stroke-linecap="round" stroke-linejoin="round"/>
<path d="M31 30.9998H28.7174" stroke="black" stroke-width="2" stroke-miterlimit="10" stroke-linecap="round" stroke-linejoin="round"/>
<path d="M11.2476 11.9736C11.9539 12.4875 12.413 13.3203 12.413 14.2607C12.413 15.8214 11.1478 17.0869 9.58684 17.0869C8.12532 17.0869 6.92304 15.9776 6.77597 14.5549" stroke="black" stroke-width="2" stroke-miterlimit="10" stroke-linecap="round" stroke-linejoin="round"/>
<path d="M23.8049 26.6879C23.9868 27.8778 22.976 29.1668 21.5471 29.5672C20.1181 29.9674 18.8122 29.3272 18.6299 28.1377C18.4479 26.9478 19.4588 25.6588 20.8877 25.2583C22.3169 24.8582 23.6229 25.4983 23.8049 26.6879Z" stroke="black" stroke-width="2" stroke-miterlimit="10" stroke-linecap="round" stroke-linejoin="round"/>
</svg>
